<?xml version="1.0" encoding="utf-8"?>
<!-- Generator: Adobe Illustrator 21.1.0, SVG Export Plug-In . SVG Version: 6.00 Build 0)  -->
<svg version="1.1" id="Capa_1" xmlns="http://www.w3.org/2000/svg" xmlns:xlink="http://www.w3.org/1999/xlink" x="0px" y="0px"
	 viewBox="0 0 500 500" style="enable-background:new 0 0 500 500;" xml:space="preserve">
<style type="text/css">
	.st0{fill:url(#SVGID_1_);}
	.st1{fill:#FFFFFF;}
</style>
<g>
	<linearGradient id="SVGID_1_" gradientUnits="userSpaceOnUse" x1="507.5408" y1="398.6913" x2="-7.5408" y2="101.3088">
		<stop  offset="0" style="stop-color:#00388A"/>
		<stop  offset="1" style="stop-color:#76AADB"/>
	</linearGradient>
	<path class="st0" d="M379.7,0H120.3C54.1,0,0,54.1,0,120.3v259.4C0,445.9,54.1,500,120.3,500h259.4c66.2,0,120.3-54.1,120.3-120.3
		V120.3C500,54.1,445.9,0,379.7,0z"/>
	<g>
		<path class="st1" d="M415.9,283.3l-7.2-8.5c-3-3.5-8.3-4-11.8-1c-3.5,3-4,8.3-1,11.8l7.2,8.5c3.2,3.8,4.6,8.7,3.9,13.9
			c-0.7,5.2-3.4,10-7.6,13.5l-64.4,54.7c-1.5,1.3-3.2,2.4-5,3.2c-2.7,1.3-5.6,2-8.5,2c-3.1-25.2-23.7-45.1-49.2-47.2
			c-0.1-0.2-0.3-0.4-0.4-0.6l-64.2-75.6c-12.9-15.2-16.5-39.8-11.8-53.2c0.9-2.5,0.5-5.3-1-7.5c-10.6-15.4-20.5-30.7-29-44.3
			c-4.1-6.7-7.8-12.9-10.9-18.3c-1.5-2.6-4.2-4.2-7.2-4.2c-2,0-3.7-0.9-5-2.3l-12.7-14.9c-1.1-1.3-1.6-2.9-1.5-4.7
			c0.1-1.7,0.9-3.2,2.2-4.4l33-28.1c1.6-1.4,4-2,6-1.5c1.2,0.3,2.2,1,2.8,1.9c0.2,0.4,0.5,0.7,0.7,1l11.6,13.7
			c0.3,0.3,0.6,0.6,0.9,0.9c0.9,0.8,1.4,1.9,1.5,3.3c0,0.5,0,1-0.1,1.6c-0.6,3,0.5,6.2,3,8.1c7.7,6.2,17.2,14.4,27.3,23.5
			c0,0,0.1,0,0.1,0.1c9,8.1,18.3,16.7,27.8,25.8c1.9,1.8,4.6,2.6,7.3,2.2c6.5-1.2,15.1-0.1,23.8,2.8c4.4,1.5,9.1-0.9,10.6-5.2
			c1.5-4.4-0.9-9.1-5.2-10.6c-9.7-3.3-19.4-4.7-27.8-4c-8.6-8.2-17.2-16.1-25.4-23.4c0,0-0.1-0.1-0.1-0.1
			c-9-8.1-17.3-15.2-24.5-21.2c0-0.1,0-0.1,0-0.2c-0.3-5.7-2.6-10.8-6.7-14.6l-10.9-12.8c-3-4.5-7.6-7.6-13.1-8.9
			c-7.1-1.6-14.9,0.4-20.5,5.1l-33,28.1c-4.7,4-7.6,9.6-8.1,15.8c-0.5,6.2,1.4,12.2,5.4,16.9l12.7,14.9c3.2,3.8,7.6,6.5,12.4,7.6
			c2.7,4.7,5.8,9.8,9.2,15.3c7.9,12.7,17.2,27,27.1,41.6c-1.3,5.4-1.9,11.7-1.6,18.4L164,206.1c-12.3-14.6-32.5-19.6-50.2-12.5
			L80.3,207c-4.3,1.7-6.4,6.6-4.7,10.9c1.7,4.3,6.6,6.4,10.9,4.7l33.5-13.4c11-4.4,23.5-1.3,31.2,7.8l101.1,119.5
			c-22.2,6.7-38.4,27.4-38.4,51.7c0,29.8,24.2,54.1,54.1,54.1c26.4,0,48.3-19,53.1-43.9c5.6,0,11.1-1.3,16.2-3.7
			c3.1-1.5,6-3.3,8.6-5.6l64.4-54.7c7.3-6.2,12-14.8,13.3-24C425,300.3,422.2,290.8,415.9,283.3z M268,425.5
			c-20.6,0-37.3-16.7-37.3-37.3s16.7-37.3,37.3-37.3c20.6,0,37.3,16.7,37.3,37.3S288.5,425.5,268,425.5z"/>
		<g>
			<g>
				<path class="st1" d="M307.2,118.9l0,30.1c0,4.8,4.3,8.5,9.1,7.6c3.7-0.6,6.4-3.9,6.4-7.6l0-24.6c0-4.2,1.6-7.6,5.4-8.2
					c2.6-0.5,3.5,1.3,3.9,3.4c0.2,1.2,0.2,3.4,0.2,5.1l-0.1,20c0,4.8,4.3,8.5,9.1,7.6l0.1,0c3.7-0.6,6.4-3.9,6.4-7.6l0-24.6
					c0-4.1,1.6-7.6,5.4-8.2c2.4-0.4,3.4,1,3.7,3.2c0.2,1.1,0.3,3.3,0.3,4.9l0,20.4c0,4.8,4.3,8.5,9.1,7.6l0.1,0
					c3.7-0.6,6.4-3.9,6.4-7.6l0-26.9c0-1.7-0.1-3.5-0.4-5c-1.4-8-6.5-11-14.3-9.6c-6,1-10,4.2-12.8,8.6c-2.5-3.9-6.9-5.1-12.4-4.2
					c-6.2,1.1-9.8,4.3-12.8,8.9c-0.6-2.8-3.3-4.6-6.1-4.1l-2.9,0.5c-2.7,0.5-4.7,3-4.4,5.8L307.2,118.9z"/>
				<path class="st1" d="M388.9,88.7c5.5-1,9.1-5.6,8.2-10.6c-0.6-3.6-3.9-6.1-8.2-5.4c-5.6,1-9,5.9-8.1,10.7
					C381.4,87.2,384.4,89.4,388.9,88.7z"/>
				<path class="st1" d="M387.6,94.9c-3.7,0.6-6.4,3.9-6.4,7.7l0,33.5c0,4.8,4.3,8.5,9.1,7.6l0.1,0c3.7-0.6,6.4-3.9,6.4-7.6l0-33.4
					C396.7,97.8,392.4,94.1,387.6,94.9z"/>
			</g>
			<g>
				<path class="st1" d="M304.2,193.4L304.2,193.4c-0.5-1.4-2-2-3.4-1.6c-0.1,0-0.2,0.1-0.4,0.1c-1.3,0.2-2.4,0.1-2.7-1.5
					c-0.1-0.4-0.1-1-0.2-1.5l0.1-9.9l3.4-0.6c1.5-0.3,2.7-1.6,2.6-3.2c0-2-1.8-3.5-3.7-3.1l-2.3,0.4l0-4.3c0-2.5-2.2-4.4-4.7-4
					c-1.9,0.3-3.3,2-3.3,4l0,22c0,1.3,0,2.5,0.2,3.7c0.6,3.1,2.5,5.6,8.2,4.6c1.7-0.3,3.5-1,4.9-1.7
					C304.2,196.1,304.7,194.7,304.2,193.4z"/>
				<path class="st1" d="M319.5,174.9c1.5,0,2.8-1.1,3-2.6l0.2-1c0.3-2-1.4-3.8-3.5-3.4l0,0c-2,0.4-4.3,1.9-5.6,5.2l0-0.2
					c-0.4-1.8-2.1-2.9-3.9-2.6c-1.8,0.3-3,2-2.8,3.8l0.2,1.5l0,15.7c0,2.5,2.2,4.4,4.7,4c1.9-0.3,3.3-2,3.3-3.9l0.1-12.1
					c0-2.3,1.5-3.9,3.5-4.2C318.9,175,319.2,174.9,319.5,174.9z"/>
				<path class="st1" d="M323.6,184.7c0.9,5.2,3.9,8.6,9,7.7c2.9-0.5,4.9-1.9,6.2-4.2l0.2,0c0.2,1.2,1.4,2.1,2.6,1.9l2.4-0.4
					c1.2-0.2,2-1.3,1.9-2.5l-0.3-3.1l0-16.2c0-1.5-1.1-2.8-2.6-2.9c-2.8-0.3-5.4-0.2-6.9,0.1C326.1,166.7,321.9,174.9,323.6,184.7z
					 M335.6,170.9c0.9-0.2,1.7-0.1,2.2,0l0,11.9c-0.2,1.8-1.2,3-2.8,3.3c-2.3,0.4-3.2-1.4-3.6-3.7
					C330.8,178.5,331.2,171.6,335.6,170.9z"/>
				<path class="st1" d="M359.9,200c7-1.2,10.7-5.6,11.2-14.2c0.1-1.3,0.1-4.4,0.1-5.8l0-16.9c0-1.5-1.2-2.8-2.7-2.9
					c-2.4-0.2-5.2,0-7.4,0.3c-8.6,1.5-13.8,8-12.3,17c0.9,5.1,4.1,7.4,7.5,7.3c-4.2,3.2-6.1,6.3-5.4,10.2
					C351.7,198.7,354.6,200.9,359.9,200z M363.4,186.5c0,4.6-0.4,7-3,7.5c-1.2,0.2-2-0.3-2.3-1.7c-0.4-2.2,1-4,2.6-5.7
					c1-1.1,2.1-2,2.7-3L363.4,186.5z M361.6,166.5c0.5-0.1,1.1-0.1,1.7-0.1l0,9.8c0,2.6-1.4,3.7-3,4c-2.1,0.4-3-1.5-3.4-3.6
					C356.2,172.5,357.2,167.3,361.6,166.5z"/>
				<path class="st1" d="M397.3,167.6c0-1.3-0.2-2.6-0.4-3.6c-1.4-8-7.6-8.2-11-7.6c-5.5,1-11.9,4.6-11.9,15c0,1.4,0.2,2.8,0.4,3.9
					c1.1,6.1,5,9,11,8C392.1,182.1,397.4,177.2,397.3,167.6z M385.5,177.2c-1.8,0.3-2.7-1.3-3-3.4c-0.2-1.2-0.4-2.9-0.3-4.5
					c0-4.1,1.1-6.6,3.4-7c1.7-0.3,2.6,1,3,3.3c0.2,1.1,0.3,2.5,0.3,4C388.9,174.5,387.9,176.8,385.5,177.2z"/>
			</g>
			<g>
				<path class="st1" d="M279.3,294c0,3.7-2.3,7.2-8.1,8.2c-5.8,1-8-1.8-8-5.7l0.1-11.8l2.5-33.7c0.2-2.6,2.2-4.8,4.8-5.2l0,0
					c3.3-0.6,6.5,1.9,6.7,5.3l2.1,31L279.3,294z M271.9,239.3c-5.2,0.9-8.5-1.7-9.1-5.8c-0.9-5.2,2.5-11,9-12.1
					c5.4-0.9,8.5,1.9,9.2,6C281.8,232.7,277.9,238.2,271.9,239.3z"/>
				<path class="st1" d="M338.4,256.8c0,3.1-0.4,12.3-0.7,15.9c-1.3,18-9.5,28.7-25.2,31.4c-11.8,2-18.8-2.5-20.2-10.8
					c-1.3-7.6,1.6-14.5,11.1-22.5c-7.8-0.1-12.1-3.6-13.3-10.8c-0.2-1.4-0.4-3.1-0.4-4.9l0.1-27.4c0-4.5,3.2-8.3,7.6-9l0,0
					c5.6-1,10.8,3.4,10.7,9.1l-0.1,23.3c0,1.4,0,2.7,0.2,3.8c0.5,2.6,1.7,4.2,5.5,3.6c3.6-0.6,6.2-4,6.3-8.8l0.1-27.2
					c0-4.5,3.2-8.3,7.6-9l0.1,0c5.6-1,10.8,3.4,10.7,9.1L338.4,256.8z M313.6,290.3c5-0.8,6.6-5,6.8-12l0.1-11.5
					c-1.7,2-3.7,3.8-6.2,6.3c-3.9,4.1-6.7,8.6-5.8,13.7C309,289.8,310.7,290.7,313.6,290.3z"/>
				<path class="st1" d="M396.5,247.3l0.7,7.1c0.3,2.8-1.6,5.3-4.3,5.7l-5.5,0.9c-2.9,0.5-5.6-1.4-6.1-4.3l0,0l-0.6,0
					c-3.1,5.2-7.6,8.4-14.2,9.6c-11.8,2-18.5-5.8-20.6-17.7c-3.9-22.6,5.9-41.2,28.9-45.2c3.6-0.6,9.4-0.9,16-0.2
					c3.4,0.4,5.9,3.3,5.9,6.7L396.5,247.3z M378.6,217c-1.3-0.3-3.1-0.4-5.1,0c-10,1.7-11.1,17.4-9.5,26.4c0.9,5.3,2.8,9.4,8.1,8.5
					c3.7-0.6,6-3.5,6.4-7.6L378.6,217z"/>
				<path class="st1" d="M415.7,240.3c5.2-0.9,8.5,1.7,9.1,5.8c0.9,5.2-2.5,11-9,12.1c-5.4,0.9-8.5-1.9-9.2-6
					C405.7,246.8,409.6,241.3,415.7,240.3z M408.3,185.6c0-3.7,2.3-7.2,8.1-8.2c5.8-1,8,1.8,8,5.7l-0.1,11.8l-2.5,33.7
					c-0.2,2.6-2.2,4.8-4.8,5.2l0,0c-3.3,0.6-6.5-1.9-6.7-5.3l-2.1-31L408.3,185.6z"/>
			</g>
		</g>
	</g>
</g>
</svg>
