<?xml version="1.0" encoding="utf-8"?>
<!-- Generator: Adobe Illustrator 21.1.0, SVG Export Plug-In . SVG Version: 6.00 Build 0)  -->
<svg version="1.1" id="Capa_1" xmlns="http://www.w3.org/2000/svg" xmlns:xlink="http://www.w3.org/1999/xlink" x="0px" y="0px"
	 viewBox="0 0 500 500" style="enable-background:new 0 0 500 500;" xml:space="preserve">
<style type="text/css">
	.st0{fill:#FFFFFF;}
</style>
<g>
	<path class="st0" d="M465.8,293.3l-9.4-11.1c-3.9-4.6-10.8-5.1-15.3-1.2c-4.6,3.9-5.1,10.8-1.2,15.3l9.4,11.1
		c4.2,4.9,5.9,11.3,5,18.1c-0.9,6.7-4.4,13-9.8,17.6l-83.7,71.1c-2,1.7-4.1,3.1-6.4,4.2c-3.5,1.7-7.3,2.6-11.1,2.6
		c-4.1-32.8-30.8-58.7-64-61.4c-0.2-0.3-0.3-0.6-0.6-0.8L195,260.6c-16.8-19.8-21.5-51.8-15.3-69.2c1.2-3.3,0.7-6.9-1.3-9.8
		c-13.7-20.1-26.7-39.9-37.7-57.7c-5.4-8.7-10.2-16.7-14.2-23.8c-1.9-3.4-5.5-5.5-9.3-5.5c-2.6,0-4.9-1.1-6.5-3L94.3,72.2
		c-1.5-1.7-2.1-3.8-1.9-6.1c0.2-2.3,1.2-4.2,2.9-5.7l43-36.5c2.1-1.8,5.2-2.6,7.8-2c1.6,0.4,2.9,1.2,3.7,2.5c0.3,0.5,0.6,0.9,1,1.3
		l15.1,17.8c0.3,0.4,0.7,0.8,1.1,1.1c1.2,1,1.9,2.5,1.9,4.3c0,0.7,0,1.3-0.2,2c-0.8,4,0.7,8,3.8,10.5c10,8.1,22.3,18.7,35.5,30.5
		c0,0,0.1,0.1,0.1,0.1c11.7,10.5,23.8,21.8,36.2,33.6c2.5,2.4,6,3.4,9.4,2.8c8.4-1.5,19.7-0.2,31,3.7c5.7,1.9,11.9-1.1,13.8-6.8
		c1.9-5.7-1.1-11.9-6.8-13.8c-12.6-4.3-25.2-6.1-36.1-5.2c-11.2-10.7-22.3-20.9-33-30.5c0,0-0.1-0.1-0.1-0.1
		c-11.8-10.6-22.5-19.8-31.9-27.6c0-0.1,0-0.2,0-0.3c-0.4-7.4-3.4-14-8.7-18.9l-14.2-16.7c-3.9-5.9-9.9-9.9-17-11.5
		c-9.2-2-19.4,0.5-26.6,6.7l-43,36.5c-6.1,5.2-9.9,12.5-10.5,20.5c-0.7,8,1.9,15.8,7.1,21.9l16.5,19.4c4.2,5,9.9,8.4,16.2,9.9
		c3.5,6.1,7.5,12.7,12,19.9c10.2,16.6,22.3,35.2,35.2,54c-1.7,7.1-2.4,15.2-2,23.9L138.2,193c-16-19-42.2-25.5-65.3-16.3l-43.6,17.4
		c-5.6,2.2-8.3,8.6-6.1,14.2c2.2,5.6,8.6,8.3,14.2,6.1L81,196.9c14.3-5.7,30.6-1.7,40.5,10.1L253,362.5
		c-28.8,8.8-49.9,35.6-49.9,67.3c0,38.8,31.5,70.3,70.3,70.3c34.3,0,62.9-24.6,69-57.1c7.2,0,14.5-1.6,21.1-4.8
		c4-1.9,7.8-4.3,11.2-7.3l83.7-71.1c9.5-8.1,15.7-19.2,17.3-31.3C477.5,315.5,474,303,465.8,293.3z M273.4,478.2
		c-26.7,0-48.5-21.8-48.5-48.5c0-26.7,21.8-48.5,48.5-48.5c26.7,0,48.5,21.8,48.5,48.5C321.9,456.5,300.1,478.2,273.4,478.2z"/>
	<g>
		<g>
			<path class="st0" d="M324.4,79.5l-0.1,39.1c0,6.3,5.6,11,11.8,9.9c4.8-0.8,8.3-5,8.3-9.9l0.1-31.9c0-5.5,2-9.9,7-10.7
				c3.4-0.6,4.5,1.7,5,4.4c0.3,1.6,0.3,4.4,0.3,6.6l-0.1,26c0,6.3,5.6,11,11.8,9.9l0.1,0c4.8-0.8,8.3-5,8.3-9.9L377,81
				c-0.1-5.4,2-9.9,7-10.7c3.2-0.6,4.4,1.4,4.8,4.1c0.3,1.5,0.4,4.3,0.4,6.3l0,26.5c0,6.3,5.6,11,11.8,9.9l0.1,0
				c4.8-0.8,8.3-5,8.3-9.9l0-35c0-2.2-0.2-4.6-0.5-6.5c-1.8-10.4-8.5-14.3-18.5-12.5c-7.8,1.4-13,5.5-16.7,11.2
				c-3.3-5.1-8.9-6.7-16.1-5.4c-8,1.4-12.8,5.6-16.6,11.5c-0.8-3.6-4.3-6-7.9-5.4l-3.7,0.6c-3.6,0.6-6.1,3.9-5.7,7.5L324.4,79.5z"/>
			<path class="st0" d="M430.6,40.2c7.2-1.2,11.8-7.3,10.7-13.7c-0.8-4.7-5-8-10.7-7c-7.3,1.3-11.7,7.7-10.6,14
				C420.9,38.3,424.8,41.2,430.6,40.2z"/>
			<path class="st0" d="M428.9,48.4c-4.8,0.8-8.4,5-8.4,10l-0.1,43.5c0,6.3,5.6,11,11.8,9.9l0.1,0c4.8-0.8,8.3-5,8.3-9.9l0.1-43.5
				C440.8,52.1,435.1,47.3,428.9,48.4z"/>
		</g>
		<g>
			<path class="st0" d="M320.5,176.4L320.5,176.4c-0.7-1.8-2.6-2.6-4.4-2.1c-0.2,0-0.3,0.1-0.5,0.1c-1.7,0.3-3.1,0.2-3.6-2
				c-0.1-0.5-0.2-1.3-0.2-2l0.1-12.8l4.4-0.8c2-0.3,3.4-2.1,3.4-4.1c0-2.6-2.3-4.5-4.9-4.1l-3,0.5l0-5.5c0-3.3-2.9-5.7-6.1-5.2
				c-2.5,0.4-4.3,2.6-4.3,5.1l0,28.7c0,1.7,0,3.3,0.3,4.8c0.8,4,3.2,7.3,10.7,6c2.2-0.4,4.5-1.2,6.4-2.2
				C320.4,179.9,321.1,178,320.5,176.4z"/>
			<path class="st0" d="M340.4,152.4c1.9,0,3.6-1.4,3.9-3.4l0.2-1.3c0.4-2.6-1.9-4.9-4.5-4.5l-0.1,0c-2.6,0.5-5.6,2.5-7.2,6.8
				l-0.1-0.3c-0.5-2.3-2.7-3.8-5.1-3.4c-2.3,0.4-3.9,2.6-3.6,4.9l0.2,1.9l0,20.5c0,3.2,2.9,5.7,6.1,5.1c2.5-0.4,4.3-2.6,4.3-5.1
				l0.1-15.8c0-3,1.9-5,4.6-5.5C339.7,152.4,340,152.4,340.4,152.4z"/>
			<path class="st0" d="M345.7,165.1c1.2,6.7,5,11.1,11.7,10c3.7-0.7,6.3-2.5,8.1-5.5l0.3,0c0.3,1.6,1.8,2.7,3.4,2.4l3.1-0.5
				c1.5-0.3,2.6-1.7,2.4-3.3l-0.4-4l0-21.1c0-2-1.5-3.6-3.4-3.8c-3.7-0.4-7-0.2-9,0.1C349,141.7,343.5,152.3,345.7,165.1z
				 M361.3,147.1c1.1-0.2,2.2-0.2,2.9,0l0,15.5c-0.2,2.3-1.5,3.9-3.6,4.3c-3,0.5-4.1-1.8-4.6-4.8C355,157,355.6,148.1,361.3,147.1z"
				/>
			<path class="st0" d="M392.9,185c9.1-1.6,14-7.3,14.5-18.4c0.1-1.7,0.2-5.8,0.2-7.5l0-22c0-2-1.5-3.6-3.5-3.8
				c-3.1-0.3-6.8-0.1-9.6,0.4c-11.2,2-18,10.3-16,22.1c1.2,6.7,5.3,9.6,9.8,9.5c-5.5,4.2-7.9,8.1-7,13.2
				C382.2,183.3,386.1,186.2,392.9,185z M397.4,167.5c0,6-0.5,9.2-4,9.8c-1.6,0.3-2.6-0.4-3-2.2c-0.5-2.9,1.3-5.2,3.3-7.4
				c1.4-1.4,2.7-2.7,3.6-3.8L397.4,167.5z M395.1,141.4c0.7-0.1,1.4-0.2,2.2-0.1l0,12.7c0,3.3-1.8,4.8-3.9,5.2
				c-2.7,0.5-3.9-1.9-4.4-4.7C388.1,149.2,389.3,142.4,395.1,141.4z"/>
			<path class="st0" d="M441.5,142.8c0-1.7-0.3-3.4-0.5-4.7c-1.8-10.4-9.9-10.7-14.3-9.9c-7.2,1.3-15.5,6-15.5,19.6
				c0,1.8,0.2,3.6,0.5,5.1c1.4,8,6.5,11.7,14.3,10.4C434.8,161.7,441.7,155.4,441.5,142.8z M426.2,155.3c-2.3,0.4-3.4-1.7-3.9-4.5
				c-0.3-1.6-0.5-3.8-0.4-5.8c0-5.3,1.5-8.6,4.4-9.1c2.2-0.4,3.4,1.3,4,4.3c0.2,1.4,0.4,3.2,0.4,5.3
				C430.6,151.8,429.3,154.8,426.2,155.3z"/>
		</g>
		<g>
			<path class="st0" d="M288.1,307.2c0,4.9-3,9.3-10.5,10.6c-7.6,1.3-10.4-2.3-10.4-7.4l0.2-15.4l3.3-43.9c0.3-3.4,2.8-6.2,6.2-6.8
				l0,0c4.4-0.7,8.4,2.4,8.7,6.8l2.7,40.2L288.1,307.2z M278.4,236.1c-6.7,1.2-11-2.2-11.9-7.5c-1.2-6.7,3.3-14.3,11.7-15.7
				c7-1.2,11,2.5,11.9,7.8C291.4,227.5,286.3,234.7,278.4,236.1z"/>
			<path class="st0" d="M365,258.8c-0.1,4-0.5,16-0.9,20.6c-1.7,23.4-12.3,37.3-32.8,40.8c-15.3,2.6-24.4-3.2-26.3-14.1
				c-1.7-9.9,2.1-18.9,14.4-29.3c-10.2-0.2-15.7-4.7-17.3-14c-0.3-1.9-0.5-4-0.5-6.4l0.1-35.7c0-5.8,4.2-10.7,9.9-11.7l0,0
				c7.3-1.3,14,4.4,13.9,11.8l-0.1,30.3c0,1.8,0,3.5,0.3,5c0.6,3.4,2.3,5.5,7.1,4.7c4.7-0.8,8.1-5.2,8.2-11.4l0.1-35.4
				c0-5.8,4.2-10.7,9.9-11.7l0.1,0c7.3-1.3,14,4.4,13.9,11.8L365,258.8z M332.7,302.3c6.4-1.1,8.6-6.5,8.8-15.6l0.1-14.9
				c-2.2,2.6-4.8,4.9-8,8.1c-5.1,5.3-8.7,11.2-7.6,17.8C326.7,301.8,328.9,303,332.7,302.3z"/>
			<path class="st0" d="M440.5,246.5l1,9.3c0.4,3.6-2.1,6.8-5.6,7.4l-7.1,1.2c-3.7,0.6-7.2-1.9-7.9-5.6l0,0l-0.7,0
				c-4,6.7-9.9,11-18.5,12.4c-15.3,2.6-24.1-7.5-26.8-23c-5-29.3,7.6-53.6,37.5-58.7c4.7-0.8,12.3-1.2,20.8-0.2
				c4.4,0.5,7.6,4.3,7.6,8.7L440.5,246.5z M417.3,207.1c-1.7-0.4-4.1-0.5-6.6,0c-13,2.2-14.4,22.6-12.4,34.4
				c1.2,6.9,3.7,12.2,10.6,11c4.9-0.8,7.8-4.6,8.3-9.8L417.3,207.1z"/>
			<path class="st0" d="M465.5,237.3c6.7-1.2,11,2.2,11.9,7.5c1.2,6.7-3.3,14.3-11.7,15.7c-7,1.2-11-2.5-11.9-7.8
				C452.5,245.9,457.6,238.7,465.5,237.3z M455.8,166.2c0-4.9,3-9.3,10.5-10.6c7.6-1.3,10.4,2.3,10.4,7.4l-0.2,15.3l-3.3,43.9
				c-0.3,3.4-2.8,6.2-6.2,6.8v0c-4.4,0.7-8.4-2.4-8.7-6.8l-2.7-40.3L455.8,166.2z"/>
		</g>
	</g>
</g>
</svg>
